# xmcd
#
# Track frame offsets:
#	150
#	10390
#	24731
#	45846
#	64620
#	73009
#	90586
#	108353
#	127711
#	139703
#	152727
#	164896
#	176900
#	188688
#	207197
#	226531
#	241583
#	254318
#	265367
#	285021
#
# Disc length: 3946 seconds
#
# Revision: 0
# Processed by: cddbd v1.5.2PL0 Copyright (c) Steve Scherf et al.
# Submitted via: EasyCDDAExtractor 10.2.0.1
#
DISCID=020f6814
DTITLE=Various Artist - Fantastic Christmas
DYEAR=2002
DGENRE=Gospel
TTITLE0=Greater Vision - Joy To The World
TTITLE1=The Talleys - Sleigh Ride
TTITLE2=Sandra Payne - That Will Be Christmas
TTITLE3=The Crabb Family - Simeon
TTITLE4=Wayne Haun - Carol Of The Bells
TTITLE5=The Hoppers - O Holy Night
TTITLE6=Janet Paschal - There's Something Going On In Bethlehem
TTITLE7=The Cumberland Qt. - No Room At The Inn
TTITLE8=Roger Helton - Go Tell It On The Mountain
TTITLE9=Gold City - It Came Upon A Midnight Clear
TTITLE10=Raphael Bundage - In The Bleak Winter
TTITLE11=The Imperials - What Child Is This
TTITLE12=The Nelons - The Savior Born Today
TTITLE13=Amy Lambert - Missing Christmas
TTITLE14=Michael Lord - A Story That Never Grows Old
TTITLE15=The New Hinsons - Mary's Lamb
TTITLE16=Gerald Wolfe - The First Noel
TTITLE17=The Steels - Ring The Bells
TTITLE18=The Down East Boys - A Strange Way To Save The World
TTITLE19=The Cathedrals - Silent Night
EXTD=
EXTT0=
EXTT1=
EXTT2=
EXTT3=
EXTT4=
EXTT5=
EXTT6=
EXTT7=
EXTT8=
EXTT9=
EXTT10=
EXTT11=
EXTT12=
EXTT13=
EXTT14=
EXTT15=
EXTT16=
EXTT17=
EXTT18=
EXTT19=
PLAYORDER=
